<?xml version="1.0" encoding="UTF-8"?><svg id="Layer_1" xmlns="http://www.w3.org/2000/svg" viewBox="0 0 1576.5 933.19"><defs><style>.cls-1,.cls-2{stroke:#03045e;}.cls-1,.cls-2,.cls-3{fill:#03045e;}.cls-1,.cls-4{stroke-linejoin:round;stroke-width:10px;}.cls-2{opacity:.85;stroke-miterlimit:10;stroke-width:7px;}.cls-5{fill:#d101ff;}.cls-6{fill:#0077b6;}.cls-7{fill:none;}.cls-8{fill:#00b4d8;}.cls-4{stroke:#4659cc;}.cls-4,.cls-9{fill:#4659cc;}</style></defs><path class="cls-1" d="M257.23,400.43v183h-19.55c-2.94,0-5.42-.48-7.44-1.45s-3.99-2.63-5.93-4.98l-91.19-116.03c.25,2.94,.44,5.85,.57,8.7,.13,2.86,.19,5.51,.19,7.95v105.82h-33.42v-183h19.93c1.6,0,2.96,.06,4.1,.19,1.13,.13,2.16,.42,3.09,.88,.92,.46,1.81,1.07,2.65,1.83,.84,.76,1.77,1.77,2.77,3.03l91.82,116.54c-.34-3.19-.59-6.28-.76-9.27-.17-2.98-.25-5.82-.25-8.51v-104.68h33.42Z"/><path class="cls-1" d="M317.18,430.07v47.04h61.04v28.63h-61.04v48.05h78.45v29.64h-116.54v-183h116.54v29.64h-78.45Z"/><path class="cls-1" d="M680.59,400.43l-56.75,183h-34.18l-37.46-119.69c-.59-1.68-1.18-3.53-1.77-5.55-.59-2.02-1.14-4.16-1.64-6.43-.5,2.27-1.05,4.41-1.64,6.43-.59,2.02-1.18,3.87-1.77,5.55l-37.84,119.69h-34.31l-56.63-183h31.78c3.28,0,6.03,.76,8.26,2.27,2.23,1.51,3.68,3.53,4.35,6.05l28.38,103.17c.67,2.86,1.37,5.95,2.08,9.27,.71,3.32,1.41,6.83,2.08,10.53,.76-3.78,1.55-7.31,2.4-10.59,.84-3.28,1.77-6.35,2.77-9.21l33.04-103.17c.67-2.1,2.12-4.01,4.35-5.74,2.23-1.72,4.94-2.59,8.13-2.59h11.1c3.28,0,5.95,.78,8.01,2.33,2.06,1.56,3.59,3.55,4.6,5.99l32.92,103.17c1.01,2.69,1.93,5.61,2.77,8.77,.84,3.15,1.64,6.5,2.4,10.03,.67-3.53,1.32-6.87,1.95-10.03,.63-3.15,1.28-6.07,1.96-8.77l28.38-103.17c.59-2.19,2.02-4.12,4.29-5.8,2.27-1.68,5-2.52,8.2-2.52h29.76Z"/><path class="cls-1" d="M854.69,552.67v30.77h-108.59v-183h37.84v152.23h70.75Z"/><path class="cls-1" d="M912.38,583.44h-38.09v-183h38.09v183Z"/><path class="cls-1" d="M972.33,430.07v50.58h65.84v29.77h-65.84v73.02h-38.09v-183h116.54v29.64h-78.45Z"/><path class="cls-1" d="M1109.62,430.07v47.04h61.04v28.63h-61.04v48.05h78.45v29.64h-116.54v-183h116.54v29.64h-78.45Z"/><path class="cls-4" d="M364.09,687.65h-53.48v152.48h-37.96v-152.48h-53.48v-30.52h144.92v30.52Z"/><path class="cls-4" d="M530.89,840.13h-34.18c-6.39,0-11.02-2.44-13.87-7.32l-34.81-56.12c-1.43-2.19-3.01-3.78-4.73-4.79-1.72-1.01-4.27-1.51-7.63-1.51h-12.86v69.75h-37.84v-183h57.51c12.78,0,23.71,1.32,32.79,3.97s16.52,6.33,22.32,11.04c5.8,4.71,10.05,10.32,12.74,16.84,2.69,6.52,4.04,13.68,4.04,21.5,0,6.05-.86,11.79-2.58,17.22-1.72,5.42-4.23,10.36-7.5,14.82-3.28,4.46-7.31,8.41-12.11,11.86-4.79,3.45-10.26,6.22-16.4,8.32,2.44,1.35,4.71,2.96,6.81,4.86,2.1,1.89,3.99,4.14,5.67,6.75l42.63,65.84Zm-88.66-96.36c6.14,0,11.43-.78,15.89-2.33,4.46-1.55,8.11-3.7,10.97-6.43,2.86-2.73,4.96-5.95,6.31-9.65,1.34-3.7,2.02-7.74,2.02-12.11,0-8.66-2.88-15.39-8.64-20.18-5.76-4.79-14.53-7.19-26.3-7.19h-19.67v57.89h19.42Z"/><path class="cls-4" d="M589.93,840.13h-38.09v-183h38.09v183Z"/><path class="cls-4" d="M769.08,657.13v183h-19.55c-2.94,0-5.42-.48-7.44-1.45-2.02-.97-3.99-2.63-5.93-4.98l-91.19-116.03c.25,2.94,.44,5.84,.57,8.7,.13,2.86,.19,5.51,.19,7.95v105.82h-33.42v-183h19.93c1.6,0,2.96,.06,4.1,.19,1.13,.13,2.16,.42,3.09,.88,.92,.46,1.81,1.07,2.65,1.83,.84,.76,1.77,1.77,2.77,3.03l91.82,116.54c-.34-3.19-.59-6.28-.76-9.27-.17-2.98-.25-5.82-.25-8.51v-104.68h33.42Z"/><path class="cls-4" d="M829.56,840.13h-38.09v-183h38.09v183Z"/><path class="cls-4" d="M996.47,687.65h-53.48v152.48h-37.96v-152.48h-53.48v-30.52h144.92v30.52Z"/><path class="cls-4" d="M1123.08,769.76v70.38h-37.84v-70.38l-66.47-112.63h33.3c3.28,0,5.91,.78,7.88,2.33,1.97,1.56,3.55,3.55,4.73,5.99l30.02,57.64c2.02,3.87,3.85,7.48,5.49,10.85,1.64,3.36,3.09,6.73,4.35,10.09,1.18-3.36,2.54-6.75,4.1-10.15,1.56-3.41,3.3-7,5.23-10.78l29.76-57.64c1.01-2.02,2.52-3.91,4.54-5.68,2.02-1.77,4.62-2.65,7.82-2.65h33.55l-66.47,112.63Z"/><path class="cls-3" d="M1475.55,231.87h-121c-3.87,0-7-3.13-7-7V100.87c0-3.87-3.13-7-7-7h-82c-3.87,0-7,3.13-7,7v124c0,3.87-3.13,7-7,7h-121c-3.87,0-7,3.13-7,7v82c0,3.87,3.13,7,7,7h121c3.87,0,7,3.13,7,7v352c0,3.87,3.13,7,7,7h82c3.87,0,7-3.13,7-7V334.87c0-3.87,3.13-7,7-7h121c3.87,0,7-3.13,7-7v-82c0-3.87-3.13-7-7-7Z"/><g><path class="cls-7" d="M1475.55,231.87h-53.1c5.06,30.74,7.37,63.11,5.24,96h47.87c3.87,0,7-3.13,7-7v-82c0-3.87-3.13-7-7-7Z"/><path class="cls-7" d="M1123.55,231.87c-3.87,0-7,3.13-7,7v82c0,3.87,3.13,7,7,7h51.75c13.88-34.33,32.12-67.76,49.64-96h-101.39Z"/><path class="cls-7" d="M1251.55,667.16v19.71c0,3.87,3.13,7,7,7h82c3.87,0,7-3.13,7-7v-108.66c-29.22,47.51-62.83,79.48-96,88.96Z"/><path class="cls-7" d="M1323.07,93.87h-64.53c-3.87,0-7,3.13-7,7v90.94c2.98-4.18,5.83-8.09,8.51-11.67,20.77-27.76,45.61-57.91,63.02-86.27Z"/><path class="cls-6" d="M1347.55,128.93v-28.06c0-3.87-3.13-7-7-7h-17.47c-17.4,28.36-42.25,58.51-63.02,86.27-2.68,3.58-5.53,7.49-8.51,11.67v33.06c0,3.87-3.13,7-7,7h-19.61c-17.52,28.24-35.76,61.67-49.64,96h51.29c17.17-44.44,45.18-87.43,62.96-111.21,21.44-28.66,48.9-60.83,58-87.73Z"/><path class="cls-6" d="M1260.37,569.06c-3.07-.55-6.01-1.25-8.83-2.08v100.18c33.17-9.47,66.78-41.44,96-88.96v-66.72c-26.82,40.39-58.11,62.82-87.17,57.57Z"/><path class="cls-6" d="M1422.44,231.87h-20.2c6.81,29.88,10.53,62.62,7.76,96h17.67c2.13-32.89-.18-65.26-5.24-96Z"/><path class="cls-8" d="M1279.26,515.49c-11.65-2.1-20.84-6.75-27.71-14.34v65.82c2.82,.82,5.75,1.52,8.83,2.08,29.06,5.25,60.35-17.18,87.17-57.57v-43.48c-20.76,33.01-45.44,51.61-68.29,47.49Z"/><path class="cls-8" d="M1343.56,159.31s-.02-.03,0,0c0,0,0,0,0,0,.15,.23,1.63,2.49,3.99,6.48v-36.86c-9.1,26.89-36.56,59.07-58,87.73-17.79,23.78-45.79,66.77-62.96,111.21h17.97c3.87,0,7,3.13,7,7v5.34c12.59-35.58,35.45-70.87,49.66-89.87,23.65-31.61,57.05-68.91,42.35-91.03Z"/><path class="cls-8" d="M1402.24,231.87h-24.68c9.34,27.86,16.49,61.34,14.69,96h17.75c2.76-33.38-.95-66.12-7.76-96Z"/><path class="cls-5" d="M1343.56,159.31s0,0,0,0c-.02-.03-.02-.03,0,0Z"/><path class="cls-9" d="M1377.57,231.87h-23.02c-3.87,0-7-3.13-7-7v-59.08c-2.36-3.99-3.84-6.25-3.99-6.48,14.7,22.12-18.7,59.42-42.35,91.03-14.21,19-37.07,54.28-49.66,89.87v160.95c6.87,7.59,16.07,12.23,27.71,14.34,22.85,4.12,47.53-14.48,68.29-47.49v-133.14c0-3.87,3.13-7,7-7h37.71c1.8-34.66-5.35-68.14-14.69-96Z"/></g><path class="cls-2" d="M1348.5,229.34c0,.87-2.03-.38-2.81-.73-6.55-2.99-15.54-6.32-26.56-8.25-4.55-.8-19.03-3.03-37.59,0-7.22,1.18-17.05,3.48-28.1,8.29-.78,.34-3.62,1.56-3.62,.69l1.98-131.25c0-1.32,1.05-2.39,2.35-2.39h90.83c1.3,0,2.35,1.07,2.35,2.39l1.17,131.25Z"/></svg>